#N canvas 1 82 408 371 10;
#X text 117 55 currentOK thresCurrent maxTime(s);
#X obj 135 90 inlet;
#X obj 154 245 del 5000;
#X obj 199 180 loadbang;
#X obj 199 202 f \$2;
#X obj 199 222 * 1000;
#X obj 135 145 change -1;
#X obj 135 122 < \$1;
#X obj 135 167 sel 1 0;
#X msg 135 199 stop;
#X msg 96 241 1;
#X msg 154 266 0;
#X obj 128 315 outlet;
#X connect 1 0 7 0;
#X connect 2 0 11 0;
#X connect 3 0 4 0;
#X connect 4 0 5 0;
#X connect 5 0 2 1;
#X connect 6 0 8 0;
#X connect 7 0 6 0;
#X connect 8 0 9 0;
#X connect 8 0 10 0;
#X connect 8 1 2 0;
#X connect 9 0 2 0;
#X connect 10 0 12 0;
#X connect 11 0 12 0;
