#N canvas 358 339 450 300 10;
#X msg 120 238 dest \$1;
#X obj 120 64 clip -3000 3000;
#X obj 120 264 s Direction-Dir\$1-ramp-params;
#X obj 120 144 i;
#X obj 120 164 change;
#X obj 120 188 speedlim 100;
#X obj 120 207 * 10;
#X obj 119 121 / 10;
#X obj 119 42 r Dir\$1Goto;
#X floatatom 186 241 5 0 0 0 - - -;
#X floatatom 48 127 8 0 0 0 - - -;
#X floatatom 72 231 5 0 0 0 - - -;
#X obj 81 174 bng 15 250 50 0 empty empty empty 17 7 0 10 -262144 -1
-1;
#X obj 120 97 + \$2;
#X connect 0 0 2 0;
#X connect 1 0 13 0;
#X connect 3 0 4 0;
#X connect 4 0 5 0;
#X connect 5 0 6 0;
#X connect 6 0 0 0;
#X connect 6 0 9 0;
#X connect 7 0 3 0;
#X connect 8 0 1 0;
#X connect 11 0 0 0;
#X connect 12 0 6 0;
#X connect 13 0 7 0;
