#N canvas 154 219 507 495 10;
#X obj 160 9 inlet;
#X obj 151 424 outlet;
#X obj 223 8 inlet;
#N canvas 168 158 484 286 error_to_speed 0;
#X obj 26 24 inlet;
#X obj 252 28 inlet;
#X obj 422 26 inlet;
#X obj 149 259 outlet;
#X text 5 6 consign (periodical);
#X text 252 11 gain;
#X text 402 10 speed clip;
#X obj 64 105 -;
#X obj 130 160 *;
#X obj 160 182 f;
#X obj 160 206 * -1;
#X obj 149 229 clip;
#X obj 166 26 inlet;
#X text 160 10 measure;
#X obj 64 231 outlet;
#X text 63 248 error;
#X connect 0 0 7 0;
#X connect 1 0 8 1;
#X connect 2 0 9 0;
#X connect 7 0 8 0;
#X connect 7 0 14 0;
#X connect 8 0 11 0;
#X connect 9 0 10 0;
#X connect 9 0 11 2;
#X connect 10 0 11 1;
#X connect 11 0 3 0;
#X connect 12 0 7 1;
#X restore 133 183 pd error_to_speed;
#X floatatom 197 164 5 0 0 0 - - -;
#X floatatom 242 165 5 0 0 0 - - -;
#X floatatom 236 224 5 0 0 0 - - -;
#X floatatom 281 225 5 0 0 0 - - -;
#X text 98 225 wanted speed;
#X text 170 264 accel;
#X obj 128 284 f;
#X obj 163 284 +;
#X obj 116 332 f;
#X obj 151 332 +;
#X text 171 299 speed;
#X text 166 348 pos;
#X obj 36 44 tgl 15 0 empty empty empty 0 -6 0 8 -262144 -1 -1 0 1
;
#X obj 126 158 f;
#X floatatom 176 120 8 0 0 0 - - -;
#X floatatom 266 378 8 0 0 0 - - -;
#X floatatom 65 241 8 0 0 0 - - -;
#X floatatom 283 314 8 0 0 0 - - -;
#X floatatom 250 343 8 0 0 0 - - -;
#X obj 223 131 init \$1;
#X obj 277 131 init \$2;
#X obj 331 132 init \$3;
#X obj 390 130 init \$4;
#X obj 277 10 inlet;
#X obj 331 10 inlet;
#X obj 390 12 inlet;
#X obj 440 68 bng 15 250 50 0 empty empty empty 0 -6 0 8 -262144 -1
-1;
#X obj 42 299 abs;
#X obj 20 365 &&;
#X obj 43 338 t b f;
#X obj 20 250 abs;
#X obj 20 404 sel 1;
#X obj 173 80 t b f;
#X obj 31 75 change;
#X obj 20 427 del 1000;
#X msg 20 446 0;
#X obj 42 319 < 1e-04;
#X obj 20 270 < 0.001;
#X msg 67 405 stop;
#X obj 31 95 metro 20;
#X obj 31 114 bng 15 250 50 0 empty empty empty 0 -6 0 8 -262144 -1
-1;
#X obj 173 57 f;
#X floatatom 9 176 8 0 0 0 - - -;
#X obj 101 385 tgl 15 0 empty empty empty 0 -6 0 8 -262144 -1 -1 1
1;
#X msg 116 116 0;
#X msg 53 447 1;
#X obj 33 472 f;
#X obj 20 385 change 1;
#X obj 102 30 route set;
#X obj 102 51 t b f b;
#X msg 143 79 0;
#X floatatom 57 28 5 0 0 0 - - -;
#X msg 88 115 1;
#X msg 94 4 0;
#N canvas 168 158 484 286 speederror_to_accel 0;
#X obj 26 24 inlet;
#X obj 252 28 inlet;
#X obj 422 26 inlet;
#X obj 213 263 outlet;
#X text 5 6 consign (periodical);
#X text 252 11 gain;
#X text 402 10 speed clip;
#X obj 64 105 -;
#X obj 130 160 *;
#X obj 224 186 f;
#X obj 224 210 * -1;
#X obj 213 233 clip;
#X obj 166 26 inlet;
#X text 160 10 measure;
#X connect 0 0 7 0;
#X connect 1 0 8 1;
#X connect 2 0 9 0;
#X connect 7 0 8 0;
#X connect 8 0 11 0;
#X connect 9 0 10 0;
#X connect 9 0 11 2;
#X connect 10 0 11 1;
#X connect 11 0 3 0;
#X connect 12 0 7 1;
#X restore 163 247 pd speederror_to_accel;
#X msg 145 205 0;
#X connect 0 0 52 0;
#X connect 2 0 23 0;
#X connect 3 0 34 0;
#X connect 3 1 58 0;
#X connect 4 0 3 2;
#X connect 5 0 3 3;
#X connect 6 0 58 2;
#X connect 7 0 58 3;
#X connect 10 0 11 1;
#X connect 10 0 58 1;
#X connect 11 0 10 0;
#X connect 11 0 13 0;
#X connect 11 0 31 0;
#X connect 12 0 13 1;
#X connect 12 0 3 1;
#X connect 13 0 12 0;
#X connect 13 0 1 0;
#X connect 16 0 37 0;
#X connect 17 0 3 0;
#X connect 23 0 4 0;
#X connect 24 0 5 0;
#X connect 25 0 6 0;
#X connect 26 0 7 0;
#X connect 27 0 24 0;
#X connect 28 0 25 0;
#X connect 29 0 26 0;
#X connect 30 0 26 0;
#X connect 30 0 25 0;
#X connect 30 0 24 0;
#X connect 30 0 23 0;
#X connect 31 0 40 0;
#X connect 32 0 47 0;
#X connect 32 0 51 0;
#X connect 33 0 32 0;
#X connect 33 1 32 1;
#X connect 34 0 41 0;
#X connect 35 0 38 0;
#X connect 35 1 42 0;
#X connect 35 1 49 0;
#X connect 36 0 48 0;
#X connect 36 1 17 1;
#X connect 37 0 43 0;
#X connect 38 0 39 0;
#X connect 39 0 50 0;
#X connect 40 0 33 0;
#X connect 41 0 32 0;
#X connect 42 0 38 0;
#X connect 43 0 17 0;
#X connect 45 0 36 0;
#X connect 45 0 55 0;
#X connect 48 0 51 0;
#X connect 49 0 50 0;
#X connect 50 0 16 0;
#X connect 51 0 35 0;
#X connect 52 0 53 0;
#X connect 52 1 45 0;
#X connect 53 0 56 0;
#X connect 53 0 59 0;
#X connect 53 1 17 0;
#X connect 53 1 12 0;
#X connect 53 2 54 0;
#X connect 54 0 16 0;
#X connect 56 0 51 0;
#X connect 57 0 53 0;
#X connect 58 0 11 0;
#X connect 59 0 10 0;
#X connect 59 0 58 0;
#X coords 0 0 0.00204082 0.00221239 50 10 0;
