#N canvas 520 198 727 564 10;
#X obj 187 42 inlet;
#X obj 152 208 f;
#X obj 152 252 +;
#X obj 152 156 tgl 15 0 empty empty empty 17 7 0 10 -262144 -1 -1 0
1;
#X obj 152 182 metro 20;
#X obj 206 372 +;
#X obj 196 527 outlet;
#X obj 260 16 init 1;
#X obj 194 495 +;
#X obj 261 360 clip -100000 100000;
#X floatatom 306 389 8 0 0 0 - - -, f 8;
#X obj 394 353 t f f;
#X obj 152 306 t f f f;
#X obj 396 381 -;
#X floatatom 354 426 5 0 0 0 - - -, f 5;
#X obj 209 471 +;
#X floatatom 392 470 8 0 0 0 - - -, f 8;
#X floatatom 449 444 8 0 0 0 - - -, f 8;
#X obj 396 408 * 50;
#X obj 206 345 / 50;
#X obj 261 383 * 1;
#X obj 113 399 * 0.4;
#X obj 206 416 * 0.2;
#X obj 396 440 * 8;
#X obj 152 282 * 1;
#X obj 141 377 r RegulYP;
#X obj 247 413 r RegulYI;
#X obj 430 407 r RegulYD;
#X floatatom 385 95 5 0 0 0 - - -, f 5;
#X obj 385 124 / 100;
#X floatatom 471 97 5 0 0 0 - - -, f 5;
#X obj 471 126 / 100;
#X floatatom 552 94 5 0 0 0 - - -, f 5;
#X obj 552 123 / 100;
#X obj 385 149 s RegulYP;
#X obj 471 149 s RegulYI;
#X obj 552 148 s RegulYD;
#X obj 422 25 bng 15 250 50 0 empty empty empty 17 7 0 10 -262144 -1
-1;
#X obj 152 232 * 0.1;
#X obj 197 253 * 0.9;
#X obj 552 66 init 0;
#X obj 56 33 r RegulYOn;
#X obj 385 67 init 5;
#X obj 471 69 init 0.05;
#X obj 130 23 r RegulYSTOP;
#X obj 114 108 && 1;
#X obj 130 63 == 0;
#X obj 127 85 t b f;
#X obj 130 44 tgl 15 0 empty empty empty 17 7 0 10 -262144 -1 -1 1
1;
#X connect 0 0 1 1;
#X connect 1 0 38 0;
#X connect 2 0 24 0;
#X connect 2 0 39 0;
#X connect 3 0 4 0;
#X connect 4 0 1 0;
#X connect 5 0 9 0;
#X connect 5 0 22 0;
#X connect 8 0 6 0;
#X connect 9 0 20 0;
#X connect 9 0 10 0;
#X connect 11 0 13 1;
#X connect 11 1 13 0;
#X connect 12 0 21 0;
#X connect 12 1 19 0;
#X connect 12 2 11 0;
#X connect 13 0 18 0;
#X connect 15 0 8 1;
#X connect 17 0 23 1;
#X connect 18 0 23 0;
#X connect 19 0 5 0;
#X connect 20 0 5 1;
#X connect 21 0 8 0;
#X connect 22 0 15 0;
#X connect 23 0 15 1;
#X connect 24 0 12 0;
#X connect 25 0 21 1;
#X connect 26 0 22 1;
#X connect 27 0 23 1;
#X connect 28 0 29 0;
#X connect 29 0 34 0;
#X connect 30 0 31 0;
#X connect 31 0 35 0;
#X connect 32 0 33 0;
#X connect 33 0 36 0;
#X connect 37 0 40 0;
#X connect 37 0 42 0;
#X connect 37 0 43 0;
#X connect 38 0 2 0;
#X connect 39 0 2 1;
#X connect 40 0 32 0;
#X connect 41 0 45 0;
#X connect 42 0 28 0;
#X connect 43 0 30 0;
#X connect 44 0 48 0;
#X connect 45 0 3 0;
#X connect 46 0 47 0;
#X connect 47 0 45 0;
#X connect 47 1 45 1;
#X connect 48 0 46 0;
