#N canvas 475 253 916 564 10;
#X obj 187 42 inlet;
#X obj 136 123 f;
#X obj 672 317 +;
#X floatatom 20 523 8 0 0 0 - - -, f 8;
#X obj 136 71 tgl 15 0 empty empty empty 17 7 0 10 -262144 -1 -1 0
1;
#X obj 136 97 metro 20;
#X obj 172 309 +;
#X floatatom 80 445 8 0 0 0 - - -, f 8;
#X obj 159 472 outlet;
#X obj 137 38 init 1;
#X floatatom 43 368 8 0 0 0 - - -, f 8;
#X obj 159 404 +;
#X obj 227 297 clip -100000 100000;
#X floatatom 116 339 8 0 0 0 - - -, f 8;
#X obj 360 290 t f f;
#X obj 136 252 t f f f;
#X obj 362 318 -;
#X floatatom 320 363 5 0 0 0 - - -, f 5;
#X obj 193 405 +;
#X floatatom 361 420 8 0 0 0 - - -, f 8;
#X floatatom 72 230 5 0 0 0 - - -, f 5;
#X obj 20 488 * 0.05;
#X floatatom 415 381 8 0 0 0 - - -, f 8;
#X obj 362 345 * 50;
#X obj 172 282 / 50;
#X obj 227 320 * 1;
#X floatatom 7 295 8 0 0 0 - - -, f 8;
#X floatatom 31 267 5 0 0 0 - - -, f 5;
#X obj 61 320 * 0.4;
#X obj 172 353 * 0.2;
#X obj 362 377 * 8;
#X obj 69 185 * 1;
#X floatatom 385 95 5 0 0 0 - - -, f 5;
#X obj 385 124 / 100;
#X floatatom 471 97 5 0 0 0 - - -, f 5;
#X obj 471 126 / 100;
#X floatatom 552 94 5 0 0 0 - - -, f 5;
#X obj 552 123 / 100;
#X obj 422 25 bng 15 250 50 0 empty empty empty 17 7 0 10 -262144 -1
-1;
#X floatatom 727 165 5 0 0 0 - - -, f 5;
#X obj 385 149 s RegulXP;
#X obj 471 149 s RegulXI;
#X obj 552 148 s RegulXD;
#X obj 213 350 r RegulXI;
#X obj 396 344 r RegulXD;
#X obj 96 298 r RegulXP;
#X obj 56 33 r RegulXOn;
#X msg 256 220 0;
#X obj 674 174 -;
#X obj 696 124 r MesureAngleX;
#X obj 672 206 + 180;
#X obj 672 247 - 180;
#X obj 672 268 / 360;
#X floatatom 761 291 5 0 0 0 - - -, f 5;
#X obj 646 147 * 360;
#X obj 256 192 sel 0;
#X obj 672 295 * 0.1;
#X obj 717 318 * 0.9;
#X obj 471 69 init 20;
#X obj 672 227 fmod 360;
#X floatatom 534 218 5 0 0 0 - - -, f 5;
#X obj 385 67 init 400;
#X obj 563 28 init 60;
#X obj 552 66 init 0;
#X obj 805 179 mknob 25 -1 0 360 0 0 empty empty empty -2 -6 0 8 -4032
-1 -1 0 1;
#X obj 809 150 mknob 25 -1 0 360 0 0 empty empty empty -2 -6 0 8 -4032
-1 -1 0 1;
#X obj 840 149 mknob 25 -1 0 360 0 0 empty empty empty -2 -6 0 8 -4032
-1 -1 0 1;
#X obj 219 86 r RegulXSTOP;
#X connect 0 0 1 1;
#X connect 1 0 54 0;
#X connect 2 0 57 0;
#X connect 4 0 5 0;
#X connect 4 0 55 0;
#X connect 5 0 1 0;
#X connect 6 0 12 0;
#X connect 6 0 29 0;
#X connect 11 0 8 0;
#X connect 11 0 7 0;
#X connect 12 0 25 0;
#X connect 14 0 16 1;
#X connect 14 1 16 0;
#X connect 15 0 28 0;
#X connect 15 1 24 0;
#X connect 15 2 14 0;
#X connect 16 0 23 0;
#X connect 18 0 11 1;
#X connect 21 0 3 0;
#X connect 22 0 30 1;
#X connect 23 0 30 0;
#X connect 24 0 6 0;
#X connect 25 0 6 1;
#X connect 28 0 11 0;
#X connect 29 0 18 0;
#X connect 30 0 18 1;
#X connect 32 0 33 0;
#X connect 33 0 40 0;
#X connect 34 0 35 0;
#X connect 35 0 41 0;
#X connect 36 0 37 0;
#X connect 37 0 42 0;
#X connect 38 0 58 0;
#X connect 38 0 61 0;
#X connect 38 0 63 0;
#X connect 43 0 29 1;
#X connect 44 0 30 1;
#X connect 45 0 28 1;
#X connect 47 0 12 0;
#X connect 48 0 50 0;
#X connect 48 0 60 0;
#X connect 48 0 64 0;
#X connect 49 0 48 1;
#X connect 49 0 39 0;
#X connect 49 0 65 0;
#X connect 50 0 59 0;
#X connect 51 0 52 0;
#X connect 51 0 53 0;
#X connect 52 0 15 0;
#X connect 54 0 48 0;
#X connect 54 0 66 0;
#X connect 55 0 47 0;
#X connect 56 0 2 0;
#X connect 57 0 2 1;
#X connect 58 0 34 0;
#X connect 59 0 51 0;
#X connect 61 0 32 0;
#X connect 63 0 36 0;
#X connect 67 0 55 0;
