#N canvas 649 144 605 564 10;
#X obj 187 42 inlet;
#X obj 136 123 f;
#X obj 136 167 +;
#X floatatom 20 492 8 0 0 0 - - -;
#X obj 136 71 tgl 15 0 empty empty empty 17 7 0 10 -262144 -1 -1 1
1;
#X obj 181 168 * 0.95;
#X obj 136 97 metro 20;
#X obj 343 14 r AvancePWM;
#X obj 343 52 / 1023;
#X floatatom 436 49 5 0 0 0 - - -;
#X obj 343 74 t f f;
#X obj 390 101 > 0;
#X obj 390 120 * 2;
#X obj 390 143 - 1;
#X obj 343 98 abs;
#X obj 343 163 *;
#X obj 136 197 *;
#X obj 343 140 max 0;
#X floatatom 293 167 5 0 0 0 - - -;
#X obj 172 278 +;
#X floatatom 83 390 8 0 0 0 - - -;
#X floatatom 388 502 5 0 0 0 - - -;
#X obj 248 454 clip -1 1;
#X obj 343 229 * 1;
#X floatatom 283 126 5 0 0 0 - - -;
#X obj 159 441 outlet;
#X obj 137 38 init 1;
#X obj 263 432 / 5000;
#X obj 236 474 * 500;
#X floatatom 43 317 8 0 0 0 - - -;
#X obj 263 409 * 0.05;
#X obj 159 373 +;
#X floatatom 296 30 5 0 0 0 - - -;
#X obj 227 266 clip -100000 100000;
#X floatatom 259 294 8 0 0 0 - - -;
#X obj 388 474 * 0.01;
#X obj 360 259 t f f;
#X obj 136 221 t f f f;
#X obj 362 287 -;
#X floatatom 320 332 5 0 0 0 - - -;
#X obj 193 374 +;
#X floatatom 362 371 8 0 0 0 - - -;
#X obj 385 430 * 0.04;
#X floatatom 20 150 5 0 0 0 - - -;
#X obj 20 457 * 0.05;
#X obj 343 119 - 0.01;
#X floatatom 415 350 8 0 0 0 - - -;
#X obj 102 289 r RegulDirP;
#X obj 213 319 r RegulDirI;
#X obj 418 398 r RegulDirIpre;
#X obj 396 313 r RegulDirD;
#X obj 362 314 * 50;
#X obj 172 251 / 50;
#X obj 227 289 * 1;
#X floatatom 7 264 8 0 0 0 - - -;
#X obj 136 147 * 0.05;
#X floatatom 31 236 5 0 0 0 - - -;
#X obj 61 289 * 0.4;
#X obj 172 322 * 0.2;
#X obj 362 346 * 8;
#X obj 343 207 clip -1 1;
#X obj 343 185 +;
#X obj 415 185 t b f;
#X obj 415 161 r RegulDirTestOffsetPWM;
#X connect 0 0 1 1;
#X connect 1 0 43 0;
#X connect 1 0 55 0;
#X connect 2 0 5 0;
#X connect 2 0 16 0;
#X connect 4 0 6 0;
#X connect 5 0 2 1;
#X connect 6 0 1 0;
#X connect 7 0 9 0;
#X connect 7 0 8 0;
#X connect 8 0 10 0;
#X connect 10 0 14 0;
#X connect 10 1 11 0;
#X connect 11 0 12 0;
#X connect 12 0 13 0;
#X connect 13 0 15 1;
#X connect 14 0 24 0;
#X connect 14 0 45 0;
#X connect 15 0 18 0;
#X connect 15 0 61 0;
#X connect 16 0 37 0;
#X connect 17 0 15 0;
#X connect 19 0 33 0;
#X connect 19 0 58 0;
#X connect 22 0 28 0;
#X connect 23 0 16 1;
#X connect 26 0 4 0;
#X connect 30 0 27 0;
#X connect 31 0 20 0;
#X connect 31 0 25 0;
#X connect 32 0 8 0;
#X connect 33 0 53 0;
#X connect 35 0 21 0;
#X connect 36 0 38 1;
#X connect 36 1 38 0;
#X connect 37 0 57 0;
#X connect 37 1 52 0;
#X connect 37 2 36 0;
#X connect 38 0 39 0;
#X connect 38 0 51 0;
#X connect 40 0 31 1;
#X connect 44 0 3 0;
#X connect 45 0 17 0;
#X connect 46 0 59 1;
#X connect 47 0 57 1;
#X connect 48 0 58 1;
#X connect 49 0 42 1;
#X connect 50 0 59 1;
#X connect 51 0 59 0;
#X connect 52 0 19 0;
#X connect 53 0 19 1;
#X connect 53 0 34 0;
#X connect 55 0 2 0;
#X connect 57 0 31 0;
#X connect 57 0 29 0;
#X connect 58 0 40 0;
#X connect 59 0 40 1;
#X connect 59 0 41 0;
#X connect 60 0 23 0;
#X connect 61 0 60 0;
#X connect 62 0 61 0;
#X connect 62 1 61 1;
#X connect 63 0 62 0;
